<?xml version="1.0"?><svg width="744.09445" height="1052.3622" xmlns="http://www.w3.org/2000/svg" xmlns:xlink="http://www.w3.org/1999/xlink">
 <defs>
  <linearGradient id="linearGradient3231">
   <stop stop-color="#9f9f9f" id="stop3233" offset="0"/>
   <stop stop-color="#626262" id="stop3235" offset="1"/>
  </linearGradient>
  <linearGradient id="linearGradient3433">
   <stop stop-color="#b2e0e0" stop-opacity="0" offset="0" id="stop3435"/>
   <stop stop-color=" rgb(255, 255, 255)" id="stop3443" offset="0.462244"/>
   <stop stop-color="#7beae6" stop-opacity="0" id="stop3441" offset="0.674033"/>
   <stop stop-color=" white" id="stop3437" offset="1"/>
  </linearGradient>
  <linearGradient y2="0.489832" x2="1.004772" y1="0.489832" x1="-0.004776" id="linearGradient4360" xlink:href="#linearGradient3433"/>
  <radialGradient gradientUnits="userSpaceOnUse" gradientTransform="matrix(2.951730728149414,0.02464034967124462,-0.015331151895225048,1.8365579843521118,-232.96824645996094,788.6805419921875)" r="88.380351" fy="-381.17078" fx="189.43983" cy="-381.17078" cx="189.43983" id="radialGradient3237" xlink:href="#linearGradient3231"/>
 </defs>
 <metadata id="metadata4">
  <metadata id="metadata126">2006-02-28T13:33:10Z2006-02-28T13:33:10ZIllustratorJPEG124256/9j/4AAQSkZJRgABAgEASABIAAD/7QAsUGhvdG9zaG9wIDMuMAA4QklNA+0AAAAAABAASAAAAAEA
AQBIAAAAAQAB/+4ADkFkb2JlAGTAAAAAAf/bAIQABgQEBAUEBgUFBgkGBQYJCwgGBggLDAoKCwoK
DBAMDAwMDAwQDA4PEA8ODBMTFBQTExwbGxscHx8fHx8fHx8fHwEHBwcNDA0YEBAYGhURFRofHx8f
Hx8fHx8fHx8fHx8fHx8fHx8fHx8fHx8fHx8fHx8fHx8fHx8fHx8fHx8fHx8f/8AAEQgBAAB8AwER
AAIRAQMRAf/EAaIAAAAHAQEBAQEAAAAAAAAAAAQFAwIGAQAHCAkKCwEAAgIDAQEBAQEAAAAAAAAA
AQACAwQFBgcICQoLEAACAQMDAgQCBgcDBAIGAnMBAgMRBAAFIRIxQVEGE2EicYEUMpGhBxWxQiPB
UtHhMxZi8CRygvElQzRTkqKyY3PCNUQnk6OzNhdUZHTD0uIIJoMJChgZhJRFRqS0VtNVKBry4/PE
1OT0ZXWFlaW1xdXl9WZ2hpamtsbW5vY3R1dnd4eXp7fH1+f3OEhYaHiImKi4yNjo+Ck5SVlpeYmZ
qbnJ2en5KjpKWmp6ipqqusra6voRAAICAQIDBQUEBQYECAMDbQEAAhEDBCESMUEFURNhIgZxgZEy
obHwFMHR4SNCFVJicvEzJDRDghaSUyWiY7LCB3PSNeJEgxdUkwgJChgZJjZFGidkdFU38qOzwygp
0+PzhJSktMTU5PRldYWVpbXF1eX1RlZmdoaWprbG1ub2R1dnd4eXp7fH1+f3OEhYaHiImKi4yNjo
+DlJWWl5iZmpucnZ6fkqOkpaanqKmqq6ytrq+v/aAAwDAQACEQMRAD8A9U4q7FXYq7FXYq7FXYq7
FXYq7FXYq7FXYq7FXYq7FXYq7FXYq7FXYq7FXYq7FXYq7FXYq7FXYq7FXYq7FXYq7FXYq7FXYq7F
XYq7FXYq7FXYq7FXYq7FXYq7FXYq7FXYq7FXYq7FXYq7FXYq7FXYq7FXYq7FXYq7FXYq7FXYq7FX
Yq7FXYq7FXYq7FXYq7FXYq7FXYq7FXYq7FXYq7FXYq7FXYq7FXYq7FXYq7FXYq7FXYq7FXYq7FXY
q7FXYq7FXYq7FXYq7FXYq7FXYq7FXYq7FXYq7FXYq7FXYq7FXYq7FXYq7FXYq7FXYq7FXYq7FXYq
7FXYq7FXYq7FXYq7FXYq7FXYq7FXYq7FXYq7FXYq7FXYq7FXYq7FXYq7FXYq7FXYq7FXYq7FXYq7
FXYq7FXYq7FXYq7FXYq7FXYq7FXYq7FXYq7FXYq7FXYq7FXYq7FXYq7FXYq7FXYq7FXYq7FXYq7F
XYq7FXYq7FXYq7FXYq7FXYq7FXYq7FXYq7FXYq7FXYq7FXYq7FXYq7FXYq7FXYq7FXYq7FXYq7FX
Yq7FXYq7FXYq7FXYq7FXYq7FXYq7FXYq7FXYq7FXYq7FXYq7FXYq7FXYq7FXYq7FXYq7FXYq7FXY
q7FXYq7FXYq7FXYq7FXYq7FXYq7FXYq7FXYq7FXYq7FXYq7FXYq7FXYq7FXYq7FXYq7FXYq7FXYq
7FXYq7FXYq7FXYq7FXYq7FXYq7FXYq7FXYq7FXYq7FXYq7FXYq7FXYq7FXYq7FXYq7FXYq7FXYq7
FXYq7FXYq7FXYq7FXYq7FXYq7FXYq7FXYq7FXYq7FXYq7FXYq7FXYq7FXYq7FXYq7FXYq7FXYq7F
XYq7FXYq7FXYq7FXYq7FXYq7FXYq7FXYq7FXYq7FXYq7FXYq7FXYq7FXYq7FXYq7FXYq7FXYq7FX
Yq7FXYq7FXYq7FXYq7FXYq7FXYq7FXYq7FXYq7FXYq7FXYq7FXYq7FXYq7FXYq7FXYq7FXYq7FXY
q7FXYq7FXYq7FXYq7FXYq7FXYq7FXYq7FXYq7FXYq7FXYq7FXYq7FXYq7FXYq7FXYq7FXYq7FXYq
7FXYq7FXYq7FXYq7FXYq7FXYq7FXYq7FXYq7FXYq7FXYq7FXYq7FXYq7FXYq7FXYq7FXYq7FXYq7
FXYq7FXYq7FXYq7FXYq7FXYq7FXYq7FXYq7FXYq7FXYq7FXYq7FXYq7FXYq7FXYq7FXYq7FXYq7F
XYq7FXYq7FXYq7FXYq7FXYq7FXYq7FXYq7FXYq7FXYq7FX//2Q==image/svg+xmlimage/svg+xmlSalt shakerJan Helebrantsalt shakerJan Helebrantwww.juhele.deviantart.comsalt shakerfoodsalt</metadata>
 </metadata>
 <g>
  <title>Layer 1</title>
  <path fill="#d7eef4" stroke="#000000" stroke-width="2.199986" stroke-linecap="round" stroke-linejoin="round" stroke-miterlimit="4" stroke-dashoffset="0" id="path4370" d="m229.17067,194.81868c-29.943222,13.043091 -50.802017,63.303574 -71.035233,79.357224l-52.851723,554.702332c0,0 39.02372,75.153015 87.445641,75.080261l158.556137,-0.244385l3.696716,0l158.554169,0.244385c48.422913,0.072754 87.446594,-75.080261 87.446594,-75.080261l-52.852661,-554.702332c-20.231262,-16.05365 -41.017731,-66.314133 -70.960938,-79.357224l-247.998703,0z"/>
  <path opacity="0.98" fill="#ffffff" stroke="#000000" stroke-width="2.199986" stroke-linecap="round" stroke-linejoin="round" stroke-miterlimit="4" stroke-dashoffset="0" id="path4368" d="m135.654663,510.120697l-30.370949,318.757538c0,0 39.02372,75.153015 87.445641,75.080261l158.556137,-0.244385l3.694763,0l158.556122,0.244385c48.422913,0.072754 87.446594,-75.080261 87.446594,-75.080261l-33.041748,-346.788879c-106.960388,-31.935242 -262.558746,90.087708 -432.28656,28.031342l0,0z"/>
  <path opacity="0.7" fill="url(#linearGradient4360)" stroke="#000000" stroke-width="2.199986" stroke-linecap="round" stroke-linejoin="round" stroke-miterlimit="4" stroke-dashoffset="0" d="m229.17067,194.81868c-29.943222,13.043091 -50.802017,63.303574 -71.035233,79.357224l-52.851723,554.702332c0,0 39.02372,75.153015 87.445641,75.080261c134.407242,20.922119 224.492966,18.296326 320.807022,0c48.422913,0.072754 87.446594,-75.080261 87.446594,-75.080261l-52.852661,-554.702332c-20.231262,-16.05365 -41.017731,-66.314133 -70.960938,-79.357224l-247.998703,0z" id="rect3778"/>
  <path opacity="0.98" fill="none" stroke="#000000" stroke-width="2.199986" stroke-linecap="round" stroke-linejoin="round" stroke-miterlimit="4" stroke-dashoffset="0" id="path3788" d="m279.134033,194.81868c-16.53653,13.043091 -28.054794,63.303574 -39.227066,79.357224l-29.186661,554.702332c0,0 21.548859,75.153015 48.289948,75.080261c6.873444,12.872253 167.308228,21.570984 177.158966,0c26.739136,0.072754 48.289978,-75.080261 48.289978,-75.080261l-29.186676,-554.702332c-11.172241,-16.05365 -22.651428,-66.314133 -39.187958,-79.357224l-136.950531,0z"/>
  <path opacity="0.98" fill="#808080" stroke="#000000" stroke-width="2.106182" stroke-linecap="round" stroke-linejoin="round" stroke-miterlimit="4" stroke-dashoffset="0" d="m516.584595,158.369156l0,36.525711c0,47.724075 -76.095551,62.68573 -170.617889,62.68573c-94.522324,0 -170.617874,-14.961655 -170.617874,-62.68573l0,-36.525711c0,-47.724083 76.095551,-86.144554 170.617874,-86.144554c94.522339,0 170.617889,38.420471 170.617889,86.144554z" id="rect3790"/>
  <path fill="url(#radialGradient3237)" stroke="#000000" stroke-width="2.206682" stroke-linecap="round" stroke-linejoin="round" stroke-miterlimit="4" stroke-dashoffset="0" id="path4362" d="m516.584595,117.396782l0,40.094612c0,52.387207 -76.095551,68.810806 -170.617889,68.810806c-94.522324,0 -170.617874,-16.423599 -170.617874,-68.810806l0,-40.094612c2.309143,-8.546364 3.543015,-17.258827 10.238998,-21.549606c88.111359,-56.461304 221.292267,-52.622196 313.923615,-3.930031c9.04953,4.756958 15.664703,14.416618 17.073151,25.479637z"/>
  <path opacity="0.98" fill="none" stroke="#000000" stroke-width="2.106182" stroke-linecap="round" stroke-linejoin="round" stroke-miterlimit="4" stroke-dashoffset="0" d="m516.584595,140.157639c0,47.724091 -76.095551,62.685745 -170.617889,62.685745c-94.522324,0 -170.617874,-14.961655 -170.617874,-62.685745" id="path4364"/>
  <path opacity="0.98" fill="none" stroke="#000000" stroke-width="2.106182" stroke-linecap="round" stroke-linejoin="round" stroke-miterlimit="4" stroke-dashoffset="0" id="path4366" d="m516.584595,116.69883c0,47.724083 -76.095551,58.775948 -170.617889,58.775948c-94.522324,0 -170.617874,-11.051865 -170.617874,-58.775948"/>
  <path fill="#000000" stroke="#000000" stroke-width="2" stroke-linecap="round" stroke-linejoin="round" stroke-miterlimit="4" stroke-dashoffset="0" id="path3217" d="m350.109955,91.299622c0,2.216324 -5.390228,4.01313 -12.039398,4.01313c-6.649139,0 -12.039337,-1.796806 -12.039337,-4.01313c0,-2.216324 5.390198,-4.01313 12.039337,-4.01313c6.64917,0 12.039398,1.796806 12.039398,4.01313z"/>
  <path fill="#000000" stroke="#000000" stroke-width="2" stroke-linecap="round" stroke-linejoin="round" stroke-miterlimit="4" stroke-dashoffset="0" d="m286.903198,78.257004c0,2.216324 -5.390228,4.01313 -12.039368,4.01313c-6.64917,0 -12.039368,-1.796806 -12.039368,-4.01313c0,-2.216324 5.390198,-4.01313 12.039368,-4.01313c6.649139,0 12.039368,1.796806 12.039368,4.01313z" id="path3219"/>
  <path fill="#000000" stroke="#000000" stroke-width="2" stroke-linecap="round" stroke-linejoin="round" stroke-miterlimit="4" stroke-dashoffset="0" id="path3221" d="m246.771973,98.322655c0,2.216331 -5.390244,4.01313 -12.039398,4.01313c-6.649155,0 -12.039368,-1.796799 -12.039368,-4.01313c0,-2.216324 5.390213,-4.01313 12.039368,-4.01313c6.649155,0 12.039398,1.796806 12.039398,4.01313z"/>
  <path fill="#000000" stroke="#000000" stroke-width="2" stroke-linecap="round" stroke-linejoin="round" stroke-miterlimit="4" stroke-dashoffset="0" d="m410.306854,73.240654c0,2.216324 -5.390228,4.01313 -12.039398,4.01313c-6.649139,0 -12.039337,-1.796806 -12.039337,-4.01313c0,-2.216331 5.390198,-4.01313 12.039337,-4.01313c6.64917,0 12.039398,1.796799 12.039398,4.01313z" id="path3223"/>
  <path fill="#000000" stroke="#000000" stroke-width="2" stroke-linecap="round" stroke-linejoin="round" stroke-miterlimit="4" stroke-dashoffset="0" id="path3225" d="m464.48407,93.306183c0,2.216331 -5.390228,4.01313 -12.039398,4.01313c-6.64917,0 -12.039368,-1.796799 -12.039368,-4.01313c0,-2.216324 5.390198,-4.01313 12.039368,-4.01313c6.64917,0 12.039398,1.796806 12.039398,4.01313z"/>
  <path fill="#000000" stroke="#000000" stroke-width="2" stroke-linecap="round" stroke-linejoin="round" stroke-miterlimit="4" stroke-dashoffset="0" d="m298.942596,122.401443c0,2.216324 -5.390228,4.01313 -12.039398,4.01313c-6.649139,0 -12.039337,-1.796806 -12.039337,-4.01313c0,-2.216324 5.390198,-4.01313 12.039337,-4.01313c6.64917,0 12.039398,1.796806 12.039398,4.01313z" id="path3227"/>
  <path fill="#000000" stroke="#000000" stroke-width="2" stroke-linecap="round" stroke-linejoin="round" stroke-miterlimit="4" stroke-dashoffset="0" id="path3229" d="m406.293732,118.388313c0,2.216324 -5.390228,4.01313 -12.039398,4.01313c-6.649139,0 -12.039368,-1.796806 -12.039368,-4.01313c0,-2.216331 5.390228,-4.01313 12.039368,-4.01313c6.64917,0 12.039398,1.796799 12.039398,4.01313z"/>
  <rect transform="matrix(1.9549, 0, 0, 1.9549, -38.2852, 11.5589)" fill="#f4eed7" stroke="#000000" stroke-width="1.932426" stroke-linecap="round" stroke-linejoin="round" stroke-miterlimit="4" stroke-dashoffset="0" id="rect3239" width="175.64204" height="128.73967" x="112.31923" y="224.847071" rx="156.13919" ry="128.73967"/>
 </g>
</svg>